PathFileType	4	(X/Y/Z)	Patient4_TMGait_0pt2_03_left_05.trc.trc
DataRate	CameraRate	NumFrames	NumMarkers	Units	OrigDataRate	OrigDataStartFrame	OrigNumFrames
43.887147335423	43.887147335423	5	33	mm	43.887147335423	18	       141
Frame#	Time	Sacral			L.Shoulder			Chest			R.Shoulder			Neck			R.ASIS			L.ASIS			R.Thigh.Superior			R.Thigh.Lateral			R.Thigh.Inferior			R.Patella			L.Thigh.Superior			L.Thigh.Lateral			L.Thigh.Inferior			L.Patella			L.Shank.Superior			L.Shank.Lateral			L.Shank.Inferior			R.Shank.Superior			R.Shank.Lateral			R.Shank.Inferior			R.Heel			R.Midfoot.Superior			R.Midfoot.Lateral			R.Toe			L.Heel			L.Midfoot.Lateral			L.Midfoot.Superior			L.Toe			L.Elbow			L.Wrist			R.Elbow			R.Wrist			
		X1	Y1	Z1	X2	Y2	Z2	X3	Y3	Z3	X4	Y4	Z4	X5	Y5	Z5	X6	Y6	Z6	X7	Y7	Z7	X8	Y8	Z8	X9	Y9	Z9	X10	Y10	Z10	X11	Y11	Z11	X12	Y12	Z12	X13	Y13	Z13	X14	Y14	Z14	X15	Y15	Z15	X16	Y16	Z16	X17	Y17	Z17	X18	Y18	Z18	X19	Y19	Z19	X20	Y20	Z20	X21	Y21	Z21	X22	Y22	Z22	X23	Y23	Z23	X24	Y24	Z24	X25	Y25	Z25	X26	Y26	Z26	X27	Y27	Z27	X28	Y28	Z28	X29	Y29	Z29	X30	Y30	Z30	X31	Y31	Z31	X32	Y32	Z32	X33	Y33	Z33	

18	9.767357142857	837.524305030526	996.986384276622	585.402293409765	951.528477693250	1421.637768380778	361.428074280299	1099.620459855188	1351.042624764644	480.973190343401	1082.958609435513	1431.502688589210	668.199488409677	987.747553298085	1485.097902900071	512.933490264263	1086.357839637202	927.997575675924	639.395885504574	1007.215183872770	958.599726969014	376.696622572382	1105.520112621336	724.399669563042	590.154336431004	1034.918047330174	610.868945870394	658.876315269604	1087.945727092382	562.931116283697	560.128659314060	1083.623251184770	469.066450379791	562.270250891721	1087.844535601440	773.303587259290	388.592353890977	1031.183617427771	644.860682982638	313.040984524959	1139.064938379809	585.487256424362	362.476781921303	1162.825562050851	519.865699499829	354.328430515375	1143.712523754738	447.986315291853	339.546861598868	1069.092585354400	324.717655591673	280.900793556399	1155.165420319733	216.733656244463	321.942608579205	1036.887347023599	383.590347606839	570.746430806920	958.848293851327	289.177362142385	640.849548613462	967.956687873858	194.852790815607	567.989896244845	805.166037330204	44.092042530791	551.766238730607	980.137287047729	95.335860767775	571.055854460212	894.664696466329	37.427773161879	618.473181286271	1101.480532646387	41.266516658829	589.228391425421	1060.956156157788	44.862052672212	353.109814171844	1133.773082011295	41.410233890331	272.233190464843	1213.644703375262	111.390502293652	290.954552062749	1343.104532394319	68.050992457865	262.352783267185	765.674105565254	1117.062023098037	305.329540635437	698.596901631539	869.616307930434	352.971101206415	1325.187905101192	1198.400092209877	759.879378136040	1570.007569573640	1234.590404005255	678.360399978067	
19	9.790142857143	838.401129412606	997.580901947225	584.313693972540	949.370153575127	1422.342390595185	359.414632002561	1099.115493265214	1351.423031097566	476.729698506317	1085.152232264949	1432.047881705256	664.016333249526	987.834057121712	1485.363373480901	510.255130282586	1087.440159279338	928.256914194150	636.353298094868	1006.299637735522	958.584646468421	374.146967056402	1104.076998744742	723.909153925661	588.253918047688	1032.420288028085	611.219079832711	657.909042031303	1084.330795283619	562.368704693759	559.269164088610	1078.889794638635	468.816551018758	561.776782047167	1085.705730714746	771.790879222251	385.976290239032	1026.831356571895	643.263723001689	311.898203637108	1134.687024120666	583.847107378394	360.670459445314	1157.459586588526	519.266215482998	353.556309026591	1141.010552221406	447.720248531462	338.728229104736	1070.469998520724	321.882639280306	280.098197349411	1159.894920287545	216.716707643915	321.753963582592	1032.284454320823	383.601345534368	570.489777257379	954.272047313745	289.307639418729	640.765669209296	963.304195469118	194.876751228361	567.995401673176	800.515150254481	44.021165179792	551.867882312192	975.543476788802	95.307289026222	571.119826026602	890.035545574342	37.364675758349	618.597655873593	1096.851690765761	41.301237596244	589.224925012336	1070.224485192505	43.540711201166	353.071747227756	1143.715065525141	40.256080951450	272.814289044388	1222.234114025321	111.564152547395	291.583490937155	1352.579794712758	69.745622670716	264.670972568263	758.276351513354	1121.423087630543	309.015848029975	689.257914374805	875.290537983589	362.012001179441	1334.817875730587	1209.736163472281	751.961308371381	1574.039717241929	1265.303146660424	666.013373207456	
20	9.812928571429	839.330395321444	997.753380459712	582.743421138925	947.770399171533	1422.515237952023	356.880263576913	1098.862711488087	1351.384352095853	472.340881769866	1087.127373236604	1432.160189491329	659.603056334358	988.065454877872	1485.245509042913	507.127534980902	1088.591256077778	928.196944138250	633.227978597996	1005.721672941023	958.071388578286	371.446806122762	1103.096498387383	723.211694157893	586.196598822221	1030.490100292965	611.300166669562	656.674638607376	1081.404309990411	561.609431329231	558.141311530036	1074.923483716532	468.269567627603	560.988067093338	1084.316288959873	769.992373728199	383.483196586351	1023.375660157793	641.364843254936	310.942010352372	1131.134820208850	581.930969242167	359.239692705381	1152.696723523944	517.963655426691	353.058531139796	1138.287045864847	446.701367863549	338.134993251034	1070.591203526909	319.265518308300	279.795290529731	1162.153197594028	216.277599073656	322.044244587331	1028.277692753158	383.344170656419	569.959688820134	950.116703805390	289.350494357255	640.469480165640	958.890755489347	194.760493783191	567.869245582073	795.877792609236	43.958152377937	551.953871335113	970.950783854925	95.270727872325	571.151424278398	885.414136770624	37.294191101678	618.700012013149	1092.230342003029	41.317105789844	589.231773964643	1075.537418005212	42.654020102532	353.651892482324	1149.360053128399	39.614399199795	273.691367630360	1227.010270954680	111.532209033375	292.638448669091	1357.785958294823	70.615326226277	266.585181319257	753.107481517589	1124.226984983846	312.006379451164	682.800217923076	879.155311492954	370.010580751415	1342.853380715619	1219.506644626988	743.825606733111	1575.244905323069	1292.878140436168	653.929779389070	
21	9.835714285714	840.311673344639	997.574551646604	580.716857371629	946.717203260530	1422.219767036471	353.834576625699	1098.884766874404	1350.989128338817	467.806263012462	1088.931656366983	1431.903195923915	654.983501415564	988.454169217216	1484.809468282028	503.572065722843	1089.813365978488	927.861023959764	629.989830417416	1005.458375515229	957.151976822767	368.573951534680	1102.536201028298	722.330158015043	583.940352291009	1029.091230068186	611.145551753139	655.157592981138	1079.098479156653	560.675473823970	556.709926219827	1071.651480240107	467.458202909578	559.878355459528	1083.646703540914	768.031011864647	381.067835793156	1020.842814589269	639.303448795854	310.062900605970	1128.434448161750	579.857121976498	358.068564427890	1148.671604229583	516.135563552877	352.691892276586	1135.715741436325	445.080742159676	337.655786507616	1069.716605598341	316.814462484588	279.830937310159	1162.385414416406	215.340513896422	322.657710680741	1024.802848477549	382.848668101061	569.139870691613	946.346366574049	289.324295543519	639.954212347211	954.695017596095	194.524120912520	567.606088334894	791.256454232024	43.909053687624	552.025169415104	966.363665485714	95.229414320326	571.150913485041	880.803296657618	37.220996136022	618.780094064514	1087.617041874590	41.312807743115	589.248546737345	1077.444252771348	41.921086434986	354.666401290438	1151.296165534514	39.216044774580	274.700923898522	1228.561011428490	111.115088935985	293.964068598806	1359.396813176607	70.524218178897	267.998705066485	750.035436685561	1125.510909022636	314.094073413671	679.044867513601	881.251963735605	376.619585780161	1349.436382937400	1227.588139033631	735.617569965833	1574.112892726192	1317.104323825425	642.218256215451	
22	9.858500000000	841.349768594255	997.144320282750	578.262984180169	946.180003538986	1421.558164156631	350.309525989668	1099.192986555857	1350.329467303312	463.129029061688	1090.620273005416	1431.371862493971	650.184594207932	989.010527359245	1484.147280967617	499.623162006644	1091.103620892514	927.313392436074	626.603704096720	1005.481984515857	955.956652683072	365.505408139517	1102.321200233703	721.303102327749	581.450236190557	1028.137366015082	610.812716987897	653.354165973831	1077.292460480615	559.606009312357	554.960762272623	1068.940032364698	466.442655711078	558.444433761110	1083.633510677621	766.050741538009	378.660653273279	1019.210606205923	637.234512722068	309.130303684781	1126.577112311321	577.764268089526	357.000034335877	1145.485074553097	513.998367281287	352.293778813811	1133.458692568781	443.060941400041	337.166305420523	1068.168748091765	314.531172656023	280.013775320697	1161.111054567599	213.943506018297	323.423977224676	1021.750172251345	382.170590160043	568.035186294564	942.891495573419	289.261040014057	639.228501863108	950.677795233144	194.203313502007	567.210055114965	786.653087997777	43.886209032545	552.084494860810	961.787792902273	95.188658463011	571.121176830621	876.205303816929	37.154275077216	618.838705783115	1083.011899476496	41.286986278680	589.274140562239	1076.622340251094	41.210096562023	355.912052195730	1150.272472243384	38.884113124604	275.701127925604	1227.599242825563	110.245167036479	295.405889688583	1358.211807990223	69.452644034781	268.918857969926	748.864105005492	1125.415942532586	315.097013309948	677.791528577746	881.710926400919	381.511214520372	1354.733780628040	1233.931952400480	727.474695728879	1571.162926681651	1337.876944360735	630.979841265492	
